<?xml version="1.0" encoding="UTF-8"?>
<!DOCTYPE svg PUBLIC "-//W3C//DTD SVG 1.1//EN" "http://www.w3.org/Graphics/SVG/1.1/DTD/svg11.dtd">
<!-- Creator: CorelDRAW 2018 (64-Bit) -->
<svg xmlns="http://www.w3.org/2000/svg" xml:space="preserve" width="210mm" height="297mm" version="1.1" style="shape-rendering:geometricPrecision; text-rendering:geometricPrecision; image-rendering:optimizeQuality; fill-rule:evenodd; clip-rule:evenodd"
viewBox="0 0 21000 29700"
 xmlns:xlink="http://www.w3.org/1999/xlink">
 <defs>
  <style type="text/css">
   <![CDATA[
    .fil0 {fill:white}
   ]]>
  </style>
 </defs>
 <g id="Слой_x0020_1">
  <metadata id="CorelCorpID_0Corel-Layer"/>
  <g id="_1674416053344">
   <g id="XMLID_496_">
    <path id="XMLID_497_" class="fil0" d="M3965.95 14608.19l3121.42 1165.01 1208.18 3885.5c77.31,248.85 381.61,340.83 583.59,175.7l1739.93 -1418.43c182.38,-148.61 442.16,-156.01 632.76,-17.66l3138.22 2278.41c216.07,157.05 522.18,38.65 576.37,-222.44l2298.92 -11058.17c59.15,-285.2 -221.08,-523.13 -492.65,-418.1l-12810.4 4941.88c-316.14,121.92 -313.38,569.5 3.66,688.3zm4134.89 544.85l6100.43 -3757.26c109.64,-67.33 222.44,80.92 128.29,168.25l-5034.63 4679.92c-176.96,164.73 -291.12,385.18 -323.45,624.46l-171.5 1270.95c-22.71,169.69 -261.09,186.54 -307.92,22.31l-659.59 -2317.61c-75.53,-264.35 34.55,-546.7 268.37,-691.02z" data-original="#000000" data-old_color="#000000"/>
   </g>
  </g>
 </g>
</svg>
