<?xml version="1.0" encoding="UTF-8"?>
<!DOCTYPE svg PUBLIC "-//W3C//DTD SVG 1.1//EN" "http://www.w3.org/Graphics/SVG/1.1/DTD/svg11.dtd">
<!-- Creator: CorelDRAW 2018 (64-Bit) -->
<svg xmlns="http://www.w3.org/2000/svg" xml:space="preserve" width="210mm" height="297mm" version="1.1" style="shape-rendering:geometricPrecision; text-rendering:geometricPrecision; image-rendering:optimizeQuality; fill-rule:evenodd; clip-rule:evenodd"
viewBox="0 0 21000 29700"
 xmlns:xlink="http://www.w3.org/1999/xlink">
 <defs>
  <style type="text/css">
   <![CDATA[
    .fil0 {fill:white}
   ]]>
  </style>
 </defs>
 <g id="Слой_x0020_1">
  <metadata id="CorelCorpID_0Corel-Layer"/>
  <path class="fil0" d="M10103.38 19455.19l824.12 0c0,0 248.94,-27.33 376.03,-164.34 116.98,-125.78 113.24,-361.99 113.24,-361.99 0,0 -16.1,-1105.81 497.13,-1268.65 505.93,-160.41 1155.6,1068.75 1844.21,1541.37 520.71,357.69 916.4,279.26 916.4,279.26l1841.22 -25.64c0,0 963.19,-59.33 506.49,-816.63 -37.43,-61.95 -265.97,-560.21 -1368.98,-1584.04 -1154.48,-1071.56 -999.88,-898.24 390.82,-2751.81 846.96,-1128.84 1185.55,-1818.01 1079.8,-2113.18 -100.89,-281.13 -723.8,-206.83 -723.8,-206.83l-2073.12 12.91c0,0 -153.67,-20.96 -267.66,47.17 -111.37,66.82 -183.05,222.55 -183.05,222.55 0,0 -328.11,873.53 -765.72,1616.42 -923.13,1567.57 -1292.24,1650.3 -1443.1,1552.97 -350.95,-226.85 -263.35,-911.34 -263.35,-1397.62 0,-1519.09 230.41,-2152.48 -448.65,-2316.45 -225.36,-54.47 -391.19,-90.4 -967.49,-96.21 -739.71,-7.67 -1365.8,2.25 -1720.3,175.94 -235.84,115.49 -417.77,372.85 -306.96,387.63 137.01,18.34 447.34,83.67 611.87,307.71 212.44,288.99 204.95,938.11 204.95,938.11 0,0 122.04,1788.25 -285.06,2010.42 -279.45,152.36 -662.78,-158.72 -1485.77,-1580.86 -421.7,-728.48 -740.08,-1533.69 -740.08,-1533.69 0,0 -61.39,-150.49 -170.89,-230.97 -132.89,-97.52 -318.57,-128.59 -318.57,-128.59l-1969.99 12.91c0,0 -295.73,8.24 -404.29,136.82 -96.58,114.36 -7.67,350.95 -7.67,350.95 0,0 1542.3,3608.31 3288.62,5426.69 1601.22,1667.17 3419.6,1557.67 3419.6,1557.67l0 0z"/>
 </g>
</svg>
